<?xml version="1.0" standalone="no"?><!DOCTYPE svg PUBLIC "-//W3C//DTD SVG 1.1//EN" "http://www.w3.org/Graphics/SVG/1.1/DTD/svg11.dtd"><svg t="1557277450404" class="icon" style="" viewBox="0 0 1024 1024" version="1.1" xmlns="http://www.w3.org/2000/svg" p-id="912" xmlns:xlink="http://www.w3.org/1999/xlink" width="200" height="200"><defs><style type="text/css"></style></defs><path d="M775.757576 310.30303H380.121212a38.787879 38.787879 0 0 1-38.787879-38.787878 38.787879 38.787879 0 0 1 38.787879-38.787879h395.636364a38.787879 38.787879 0 0 1 38.787879 38.787879 38.787879 38.787879 0 0 1-38.787879 38.787878zM775.757576 550.787879H380.121212a38.787879 38.787879 0 0 1 0-77.575758h395.636364a38.787879 38.787879 0 0 1 0 77.575758zM775.757576 783.515152H380.121212a38.787879 38.787879 0 0 1-38.787879-38.787879 38.787879 38.787879 0 0 1 38.787879-38.787879h395.636364a38.787879 38.787879 0 0 1 38.787879 38.787879 38.787879 38.787879 0 0 1-38.787879 38.787879zM240.484848 310.30303h-7.757575a38.787879 38.787879 0 0 1-38.787879-38.787878 38.787879 38.787879 0 0 1 38.787879-38.787879h7.757575a38.787879 38.787879 0 0 1 38.787879 38.787879 38.787879 38.787879 0 0 1-38.787879 38.787878zM240.484848 550.787879h-7.757575a38.787879 38.787879 0 0 1 0-77.575758h7.757575a38.787879 38.787879 0 0 1 0 77.575758zM240.484848 783.515152h-7.757575a38.787879 38.787879 0 0 1-38.787879-38.787879 38.787879 38.787879 0 0 1 38.787879-38.787879h7.757575a38.787879 38.787879 0 0 1 38.787879 38.787879 38.787879 38.787879 0 0 1-38.787879 38.787879z" p-id="913"></path><path d="M868.848485 1024H155.151515A116.363636 116.363636 0 0 1 38.787879 907.636364V116.363636A116.363636 116.363636 0 0 1 155.151515 0h713.69697a116.363636 116.363636 0 0 1 116.363636 116.363636v791.272728a116.363636 116.363636 0 0 1-116.363636 116.363636zM155.151515 77.575758a38.787879 38.787879 0 0 0-38.787879 38.787878v791.272728a38.787879 38.787879 0 0 0 38.787879 38.787878h713.69697a38.787879 38.787879 0 0 0 38.787879-38.787878V116.363636a38.787879 38.787879 0 0 0-38.787879-38.787878z" p-id="914"></path></svg>