<?xml version="1.0" standalone="no"?><!DOCTYPE svg PUBLIC "-//W3C//DTD SVG 1.1//EN" "http://www.w3.org/Graphics/SVG/1.1/DTD/svg11.dtd"><svg t="1557279951418" class="icon" style="" viewBox="0 0 1024 1024" version="1.1" xmlns="http://www.w3.org/2000/svg" p-id="41274" xmlns:xlink="http://www.w3.org/1999/xlink" width="200" height="200"><defs><style type="text/css"></style></defs><path d="M917.312 894.336L587.104 622.08a32.32 32.32 0 0 1-2.624-2.432l-46.816 38.016a32 32 0 0 1-39.04 0.992l-59.456-43.392a31.872 31.872 0 0 1-9.216 12.736L109.44 895.904 112 896h795.072c3.584 0 7.04-0.576 10.24-1.664z m21.76-64.992V331.84l-304.064 246.784 304.064 250.72zM80 837.056l308.928-258.176 0.192-0.16-309.12-225.6v483.936z m17.408-550.464l0.224 0.16 418.816 305.696 381.12-309.376H112c-5.248 0-10.24 1.28-14.592 3.52z m103.2-67.52V192a96 96 0 0 1 96-96h456.64a96 96 0 0 1 96 96v27.072h57.824a96 96 0 0 1 96 96V864a96 96 0 0 1-96 96H112a96 96 0 0 1-96-96V315.072a96 96 0 0 1 96-96h88.64zM785.28 192a32 32 0 0 0-32-32H296.576a32 32 0 0 0-32 32v27.072h520.64V192z" fill="#CCCCCC" p-id="41275"></path></svg>