<?xml version="1.0" standalone="no"?><!DOCTYPE svg PUBLIC "-//W3C//DTD SVG 1.1//EN" "http://www.w3.org/Graphics/SVG/1.1/DTD/svg11.dtd"><svg t="1557239006486" class="icon" style="" viewBox="0 0 1024 1024" version="1.1" xmlns="http://www.w3.org/2000/svg" p-id="40873" xmlns:xlink="http://www.w3.org/1999/xlink" width="200" height="200"><defs><style type="text/css"></style></defs><path d="M512 992q-19.008 0-30.016-15.008l-74.016-100.992q-178.016-30.016-292.992-147.488t-115.008-269.504q0-116 68.512-214.496t186.496-155.488 256.992-56.992 256.992 56.992 186.496 155.488 68.512 214.496q0 152-115.008 269.504t-292.992 147.488l-74.016 100.992q-11.008 15.008-30.016 15.008z m0-889.984q-119.008 0-220 47.488t-160 129.504-59.008 178.016q0 128.992 102.016 228t259.008 122.016q16 2.016 24.992 14.016L512 894.048l52.992-72.992q8.992-12 24.992-14.016 156.992-23.008 259.008-122.016t102.016-228q0-96-59.008-178.016t-160-129.504T512 102.016z m-212 408q-23.008 0-39.488-16t-16.512-38.016 16.512-38.016 39.008-16 39.008 16 16.512 38.016-16.512 38.016-38.496 16z m386.016 0q-23.008 0-39.008-16t-16-38.016 16-38.016 39.008-16 39.008 16 16 38.016-16 38.016-39.008 16z m-193.024 0q-23.008 0-39.008-16t-16-38.016 16-38.016 39.008-16 39.008 16 16 38.016-16 38.016-39.008 16z" p-id="40874"></path></svg>