<?xml version="1.0" standalone="no"?><!DOCTYPE svg PUBLIC "-//W3C//DTD SVG 1.1//EN" "http://www.w3.org/Graphics/SVG/1.1/DTD/svg11.dtd"><svg t="1557238826005" class="icon" style="" viewBox="0 0 1024 1024" version="1.1" xmlns="http://www.w3.org/2000/svg" p-id="39358" xmlns:xlink="http://www.w3.org/1999/xlink" width="200" height="200"><defs><style type="text/css"></style></defs><path d="M923.84 64H76.224C34.112 64 0 98.112 0 140.16v609.536c0 42.048 34.112 76.16 76.16 76.16h76.16L164.48 1024l292.608-198.144h466.688a76.16 76.16 0 0 0 76.224-76.16V140.16A76.16 76.16 0 0 0 923.84 64zM435.2 740.16l-210.304 152.448v-152.512H66.688V130.688h866.624v609.408l-498.176 0.064zM214.464 330.688v76.16h598.784v-76.16H214.464z m0 152.32v76.224h299.392v-76.16H214.464z" p-id="39359"></path></svg>