<?xml version="1.0" standalone="no"?><!DOCTYPE svg PUBLIC "-//W3C//DTD SVG 1.1//EN" "http://www.w3.org/Graphics/SVG/1.1/DTD/svg11.dtd"><svg t="1557886536714" class="icon" style="" viewBox="0 0 1194 1024" version="1.1" xmlns="http://www.w3.org/2000/svg" p-id="2693" xmlns:xlink="http://www.w3.org/1999/xlink" width="233.203125" height="200"><defs><style type="text/css"></style></defs><path d="M853.338453 424.021333c5.888 0 10.666667 4.778667 10.666667 10.666667v535.978667A10.666667 10.666667 0 0 1 853.338453 981.333333H341.338453a10.666667 10.666667 0 0 1-10.666666-10.666666V434.688c0-5.888 4.778667-10.666667 10.666666-10.666667h512z m-437.333333 85.333334v155.989333h362.666667V509.354667h-362.666667z m362.666667 386.645333V740.010667h-362.666667V896h362.666667z m-298.666667-69.376a42.666667 42.666667 0 1 1 85.333333 0 42.666667 42.666667 0 0 1-85.333333 0z m0-237.226667a42.666667 42.666667 0 1 1 85.333333 0 42.666667 42.666667 0 0 1-85.333333 0z m516.522667-268.202666A267.093333 267.093333 0 0 1 1194.671787 581.12c-0.853333 138.922667-108.629333 251.989333-244.309334 264.277333A10.837333 10.837333 0 0 1 938.671787 834.645333v-80.64c0-5.376 3.84-9.898667 9.216-10.496 36.010667-4.608 69.888-20.48 95.829333-46.08a165.546667 165.546667 0 0 0-73.216-278.186666l-50.346667-13.226667-18.432-48.810667a321.365333 321.365333 0 0 0-47.616-84.650666 325.034667 325.034667 0 0 0-443.136-66.816 328.106667 328.106667 0 0 0-117.504 151.296l-18.517333 48.981333-50.517333 13.312a166.058667 166.058667 0 0 0-88.149334 58.282667c-22.784 29.354667-34.986667 64.512-34.986666 101.888 0 44.629333 17.664 86.784 49.664 118.101333 26.112 25.770667 60.074667 41.472 96.085333 46.08 5.376 0.597333 9.386667 5.12 9.386667 10.496v80.469333a10.666667 10.666667 0 0 1-11.605334 10.666667C108.80512 833.194667 0.77312 719.957333 0.00512 580.778667a267.093333 267.093333 0 0 1 198.656-259.669334A426.666667 426.666667 0 0 1 597.594453 45.226667a426.837333 426.837333 0 0 1 398.933334 275.882666z" p-id="2694" fill="#cdcdcd"></path></svg>