<?xml version="1.0" standalone="no"?><!DOCTYPE svg PUBLIC "-//W3C//DTD SVG 1.1//EN" "http://www.w3.org/Graphics/SVG/1.1/DTD/svg11.dtd"><svg t="1557887031376" class="icon" style="" viewBox="0 0 1024 1024" version="1.1" xmlns="http://www.w3.org/2000/svg" p-id="2350" xmlns:xlink="http://www.w3.org/1999/xlink" width="200" height="200"><defs><style type="text/css"></style></defs><path d="M156.16 765.44c1.28 0 2.56 1.28 3.84 1.28 5.12 0 10.24-3.84 11.52-8.96 2.56-6.4-1.28-14.08-7.68-16.64C78.08 709.12 25.6 659.2 25.6 608V474.88c53.76 71.68 186.88 120.32 345.6 120.32 7.68 0 12.8-5.12 12.8-12.8s-5.12-12.8-12.8-12.8c-186.88 0-345.6-76.8-345.6-166.4V263.68C79.36 334.08 212.48 384 371.2 384s291.84-49.92 345.6-120.32v139.52c0 7.68 5.12 12.8 12.8 12.8s12.8-5.12 12.8-12.8V192C742.4 84.48 579.84 0 371.2 0S0 84.48 0 192v620.8c0 64 57.6 121.6 156.16 157.44 1.28 0 2.56 1.28 3.84 1.28 5.12 0 10.24-3.84 11.52-8.96 2.56-6.4-1.28-14.08-7.68-16.64C78.08 913.92 25.6 864 25.6 812.8V679.68c25.6 33.28 70.4 64 130.56 85.76zM371.2 25.6c186.88 0 345.6 76.8 345.6 166.4S558.08 358.4 371.2 358.4 25.6 281.6 25.6 192 184.32 25.6 371.2 25.6z" p-id="2351" fill="#cdcdcd"></path><path d="M907.52 700.16C881.92 576 773.12 486.4 645.12 486.4c-142.08 0-259.84 108.8-270.08 247.04-14.08-3.84-28.16-6.4-43.52-6.4-40.96 0-80.64 16.64-108.8 47.36-28.16 30.72-42.24 69.12-39.68 111.36 5.12 76.8 72.96 138.24 153.6 138.24h529.92c88.32-5.12 157.44-76.8 157.44-165.12 0-72.96-47.36-136.96-116.48-158.72zM858.88 998.4H336.64c-67.84 0-124.16-51.2-128-115.2-2.56-34.56 10.24-66.56 33.28-92.16s55.04-38.4 89.6-38.4c16.64 0 34.56 3.84 49.92 10.24l6.4 2.56 11.52-7.68v-6.4c0-131.84 110.08-238.08 244.48-238.08 117.76 0 218.88 84.48 239.36 199.68l1.28 8.96 7.68 2.56c61.44 16.64 104.96 71.68 104.96 135.68C998.4 935.68 935.68 998.4 858.88 998.4z" p-id="2352" fill="#cdcdcd"></path></svg>