<?xml version="1.0" standalone="no"?><!DOCTYPE svg PUBLIC "-//W3C//DTD SVG 1.1//EN" "http://www.w3.org/Graphics/SVG/1.1/DTD/svg11.dtd"><svg t="1557886558076" class="icon" style="" viewBox="0 0 1194 1024" version="1.1" xmlns="http://www.w3.org/2000/svg" p-id="2838" xmlns:xlink="http://www.w3.org/1999/xlink" width="233.203125" height="200"><defs><style type="text/css"></style></defs><path d="M1110.035 416.654l-51.175-1.35c8.339-66.982-7.5-136.816-49.885-195.43-42.325-58.553-103.579-95.511-169.783-108.71l14.009-49.165c76.672 16.499 147.435 60.114 196.749 128.328 49.195 68.063 68.423 148.634 60.083 226.327M966.228 250.712c35.636 49.314 48.326 108.259 40.226 164.473l-49.915-2.339c7.559-45.205-2.16-93.052-30.928-132.857-29.337-40.586-72.892-65.033-119.298-71.513l13.139-48.205c57.143 9.389 110.448 40.196 146.775 90.442M432.942 595.617h-0.839v-1.26c0.3 0.39 0.51 0.87 0.839 1.26M728.173 595.617h-0.84c0.3-0.39 0.541-0.87 0.84-1.29v1.29zM835.683 526.173c13.169-2.399 26.667-3.839 40.525-3.839 122.658 0 222.067 98.45 222.067 219.847 0 38.696-10.498 74.783-28.227 106.309h-92.481c28.587-26.697 46.674-64.313 46.674-106.309 0-80.932-66.293-146.565-148.035-146.565h-111.018v-109.909c0-101.181-82.852-183.192-185.052-183.192-102.199 0-185.051 82.012-185.051 183.192v109.909h-111.049c-81.742 0-148.005 65.633-148.005 146.565s66.262 146.536 148.005 146.536h590.191v73.283h-627.178v-3.299c-104.989-17.459-185.051-107.63-185.051-216.519 0-121.397 99.41-219.847 222.067-219.847 13.858 0 27.387 1.44 40.526 3.839-2.101-13.198-3.51-26.667-3.51-40.465 0-141.646 115.969-256.445 259.054-256.445 143.086 0 259.054 114.8 259.054 256.445 0 13.798-1.41 27.267-3.509 40.465z" p-id="2839" fill="#cdcdcd"></path></svg>