<?xml version="1.0" standalone="no"?><!DOCTYPE svg PUBLIC "-//W3C//DTD SVG 1.1//EN" "http://www.w3.org/Graphics/SVG/1.1/DTD/svg11.dtd"><svg t="1557277925361" class="icon" style="" viewBox="0 0 1024 1024" version="1.1" xmlns="http://www.w3.org/2000/svg" p-id="2894" xmlns:xlink="http://www.w3.org/1999/xlink" width="200" height="200"><defs><style type="text/css"></style></defs><path d="M298.6 493.6c0-17.8-14.5-32.3-32.3-32.3H142.1c-17.8 0-32.3 14.5-32.3 32.3 0 17.8 14.5 32.3 32.3 32.3h124.3c17.8 0 32.2-14.5 32.2-32.3zM142.1 653.5c-17.8 0-32.3 14.4-32.3 32.3 0 17.8 14.4 32.3 32.3 32.3h88.2c17.8 0 32.3-14.5 32.3-32.3 0-17.8-14.5-32.3-32.3-32.3h-88.2zM483.3 301.5c0-17.7-14.3-32.1-32-32.3H142.1c-17.8 0-32.3 14.5-32.3 32.3 0 17.8 14.5 32.3 32.3 32.3h309.2c17.8-0.2 32-14.6 32-32.3z" fill="" p-id="2895"></path><path d="M408.1 955c-0.1 0-0.1 0 0 0v-0.2H126.2c-32.5 0-59-30.6-59-68.3V135c0-37.7 26.5-68.4 59-68.4h593.1c32.5 0 58.9 30.6 58.9 68.7v86.8c0 17.8 14.5 32.3 32.3 32.3 17.8 0 32.3-14.5 32.3-32.3V135c0-73.3-55.4-133-123.5-133H126.2C58.1 2 2.6 61.7 2.6 135v751.7c0 73.2 55.4 132.9 123.6 132.9H408c17.8 0 32.3-14.4 32.3-32.3 0.1-17.9-14.4-32.3-32.2-32.3z" fill="" p-id="2896"></path><path d="M967.9 672.9c-3.9-1.6-5.7-6.1-4.1-10 0.4-1 1-1.9 1.8-2.6 2.8-2.9 6.1-5.2 9.9-6.6 30.9-13.8 47.4-40.6 44.3-71.8-2.2-29.3-12.3-57.4-29.3-81.3-19.2-29.2-56.8-40.1-88.6-25.7-4.4 1.9-9.2 2.9-14.1 2.9-2.4 0-6.3-2.5-6.5-4.7-0.3-3.6 0.3-7.3 1.7-10.7 5.4-12.9 7-27.1 4.7-40.9a86.47 86.47 0 0 0-33.1-49.2c-21.4-16.4-46.8-26.6-73.6-29.4-24.3-4.2-49 5.5-63.9 25.2-5.8 7-10.7 14.7-14.6 22.9-2.2 5.2-8.2 7.5-13.3 5.3l-1.2-0.6c-3.1-1.8-5-6.2-7.6-12.7-11.9-28.1-41.2-44.6-71.3-40.4-30.5 2.4-59.7 13.5-84 32a70.68 70.68 0 0 0-26.5 75c0.8 3.1 1.3 6 2.3 9.2 0.6 2.1 0.9 4.2 1.1 6.4 0.4 2 0.2 4.1-0.5 6-1.7 3.3-5.3 5.1-9 4.6-6.7-0.7-13.4-2.2-19.8-4.4-26.4-7.7-54.9 1.4-71.9 22.9a147.8 147.8 0 0 0-31.1 66.5c-8.6 36.2 5.6 81 48.3 95.9 3.9 0.2 7 3.2 7.3 7.1 0.4 3.4-4.6 7.6-13.2 11.3-30.6 12.8-46.7 40.3-44.4 75.1 2 29.3 12.6 57.3 30.6 80.5 17.6 24.2 48.3 35.3 77.3 27.9 7.2-1.9 14.6-3.2 22-4.1-0.4 4.3-1.6 8.4-3.4 12.3-5.3 12.3-7 25.9-5.1 39.2 3.2 18.8 13.4 35.7 28.6 47.2 22.9 18.1 50 29.9 78.8 34.4 36.2 8.1 72.9-11.3 86.5-45.8 0.7-1.8 3.4-12.9 10.8-12.4 6 0.5 6.6 5.2 10.3 13.6 13.2 29.3 38.2 46.3 66.8 46.3 3.2 0 6.5-0.2 9.7-0.6 26.6-3.5 52.1-13.1 74.3-28.2 31.1-20.2 42.9-60 27.7-93.8-1.4-3.4-1.7-7.2-0.9-10.8 2.9-5 13.2 0 24.7 2.7 29.5 7.6 60.8-2.6 80.1-26.1 16.8-20.2 27.7-44.7 31.3-70.8 4.4-21.3-0.4-43.5-13.3-61.1-9.6-12.1-22.2-21.7-36.6-27.7z m-17.8 77c-1.6 13.5-6.8 26.3-15.3 37-5.7 6.6-8.2 6-11.5 5-17.5-5.2-35.9-6.5-53.9-3.8-30.7 6.3-53.7 31.9-56.7 63-1.4 15 1 30.1 6.9 43.8 2 4.4-2.3 7.6-3.6 8.6-13.5 9.2-29.1 15-45.3 17-1.7-1.5-3-3.5-3.8-5.7-8.2-20-23.7-36.2-43.3-45.3-24.9-11.5-54.2-8-75.6 9.2-13.2 9.7-23.4 22.9-29.4 38.2-0.6 1.6-1.5 4.7-9.7 3.4-17.3-2.4-33.7-9.2-47.6-19.8l-5-4.4 2.1-3.8c5.4-12.8 8-26.5 7.6-40.4-1.4-32.5-25.9-59.4-58.2-63.8-4.3-0.6-8.5-0.9-12.8-0.8-11.8 0.3-23.6 1.9-35.1 4.8-4.2 1.1-4.8 0.5-7.1-2.4-9.8-12.6-15.6-27.7-16.6-43.6-0.2-1.5-0.2-3 0-4.5 0.5-0.9 1.2-1.6 2.1-2.2 20.1-12.5 38.2-24.6 48.3-44.5 12.6-24 9.4-53.3-8.2-73.9-9.6-12.5-22.4-22.3-37-28.3-7.6-2.7-5-15.3-5-15.3 4.3-18.3 8.9-28.9 21.2-38.2 12.5 4.3 25.7 6.2 39 5.7 40-2.5 68.7-29.9 71.2-67.2l1.8-11.8-0.8-13.7c-1-8-1-16.1 0-24.1 14.3-10.4 31.5-15.9 49.2-15.7 5.5 12.3 13.3 23.5 22.9 32.9 17.5 16.6 41.9 23.8 65.6 19.3 25.3-4.4 47-20.6 58.4-43.5 1.7-3.6 3.9-7.1 6.5-10.2 14.4 1 28.2 6 39.9 14.5 2.1 1.8 8.8 7.2 9.2 7.6l-2.1 6.6c-4.6 12.6-6.4 26.1-5.3 39.6 3.8 37 34.1 65.6 71.2 67.4 15.1 0.4 30.1-2.2 44.2-7.6l3.4-1.7 3.2 4c10.3 14.4 14.9 32.1 13 49.6-12.2 5.2-23.1 12.8-32.2 22.5-29.1 30.5-28.1 78.8 2.4 108 6.1 5.9 13.2 10.7 20.9 14.2 3.8 1.5 7.3 3.8 10.3 6.6 0.4 0.7 1.5 2.2 0.6 7.7z" fill="" p-id="2897"></path><path d="M692.3 503.5h-0.4l0.3-0.2c-89.4 1.9-160.2 76-158.3 165.3 1.9 86.6 71.7 156.4 158.3 158.3h1.8c89.4-0.4 161.8-72.9 162.1-162.3-0.7-89.7-74.1-161.9-163.8-161.1z m1 254.4s-0.1 0 0 0c-24.9 1.4-49.1-8.4-65.9-26.7-36.6-35.8-37.3-94.5-1.5-131.1 17.7-18.1 41.9-28.1 67.2-27.9h1.2c51.1 0.2 92.5 41.4 93.1 92.4-0.2 51.7-42.4 93.5-94.1 93.3z" fill="" p-id="2898"></path></svg>