<?xml version="1.0" standalone="no"?><!DOCTYPE svg PUBLIC "-//W3C//DTD SVG 1.1//EN" "http://www.w3.org/Graphics/SVG/1.1/DTD/svg11.dtd"><svg t="1557277727250" class="icon" style="" viewBox="0 0 1024 1024" version="1.1" xmlns="http://www.w3.org/2000/svg" p-id="2046" xmlns:xlink="http://www.w3.org/1999/xlink" width="200" height="200"><defs><style type="text/css"></style></defs><path d="M593.121 416.46H238.67A14.69 14.69 0 0 1 224 401.762v-34.61a14.694 14.694 0 0 1 14.69-14.69H593.12a14.694 14.694 0 0 1 14.69 14.69v34.61a14.694 14.694 0 0 1-14.68 14.7h-0.01z m0 128H238.67A14.69 14.69 0 0 1 224 529.762v-34.61a14.694 14.694 0 0 1 14.69-14.69H593.12a14.694 14.694 0 0 1 14.69 14.69v34.61a14.694 14.694 0 0 1-14.68 14.7h-0.01z m-101.12 84.071l2.33-3.999a10.7 10.7 0 0 0-9.257-16H238.669A14.684 14.684 0 0 0 224 623.15v34.611a14.694 14.694 0 0 0 14.69 14.69h232.002a10.742 10.742 0 0 0 10.629-9.913 83.543 83.543 0 0 1 10.68-34.007z" fill="" p-id="2047"></path><path d="M623.621 939.52a11.93 11.93 0 0 0-12.62-7.28 84.572 84.572 0 0 1-80.6-35.78H137.492a9.462 9.462 0 0 1-9.492-9.43V137.923a9.46 9.46 0 0 1 9.462-9.462H543.83v140.278a19.712 19.712 0 0 0 19.702 19.722h140.231v178.77h64V235.228a25.99 25.99 0 0 0-7.598-18.36L614.426 71.066a22.59 22.59 0 0 0-16-6.62H100.219a36.173 36.173 0 0 0-36.163 36.167v823.66a36.168 36.168 0 0 0 36.163 36.178h514.457a11.884 11.884 0 0 0 10.66-17.101 93.204 93.204 0 0 1-1.715-3.83z m-15.82-784.522l69.457 69.488h-62.361a7.09 7.09 0 0 1-7.092-7.09l-0.005-62.398z" fill="" p-id="2048"></path><path d="M996.127 896.287c-19.205-68.951-70.943-123.034-136.535-148.818 40.601-26.85 67.343-71.972 67.343-123.008 0-82.289-69.16-149.243-154.184-149.243-85.027 0-154.23 66.954-154.23 149.248 0 51.062 26.763 96.18 67.405 123.018-65.239 25.687-116.843 79.396-136.263 147.804-3.216 11.387 3.707 23.138 15.467 26.266a22.712 22.712 0 0 0 16.799-2.017 21.432 21.432 0 0 0 10.373-12.933c22.216-78.3 96.41-132.972 180.45-132.972 84.459 0 158.75 55.004 180.669 133.77 3.19 11.397 15.309 18.135 27.105 15.084 11.781-3.082 18.765-14.802 15.6-26.2zM662.733 624.46c0-58.742 49.357-106.501 110.018-106.501 60.631 0 109.963 47.77 109.963 106.5 0 58.584-49.342 106.256-109.963 106.256-60.661 0-110.018-47.677-110.018-106.255z" fill="" p-id="2049"></path></svg>