<?xml version="1.0" standalone="no"?><!DOCTYPE svg PUBLIC "-//W3C//DTD SVG 1.1//EN" "http://www.w3.org/Graphics/SVG/1.1/DTD/svg11.dtd"><svg t="1557728763431" class="icon" style="" viewBox="0 0 1024 1024" version="1.1" xmlns="http://www.w3.org/2000/svg" p-id="7754" xmlns:xlink="http://www.w3.org/1999/xlink" width="200" height="200"><defs><style type="text/css"></style></defs><path d="M231.621606 124.780333c14.372738 9.35328 32.004797 15.99984 42.478629 28.597092 26.770439 32.188997 55.874082 38.748573 91.854535 17.749743 6.55446-3.822156 14.091321-5.960925 21.183031-8.856963 41.859511-17.074342 47.963704-25.941538 48.367921-70.27752 0.491201-54.27768 15.252806-69.336052 70.149603-69.049518 21.055114 0.10745 42.453046 1.105202 63.057892 5.045041 26.064338 4.978524 38.318773 23.280867 38.083406 49.81594-0.0921 10.228232 0.255834 20.46158-0.01535 30.684695-0.593534 22.134732 9.348164 37.566622 29.487393 46.203568 20.333663 8.718813 40.95386 16.772458 61.333573 25.388937 20.609964 8.713696 38.108989 3.607255 53.566462-11.374367 8.570429-8.304362 16.705941-17.084575 25.634538-24.974487 21.060231-18.614461 45.886334-20.686714 67.309849-2.732304 20.175046 16.905491 39.152791 35.622286 56.493199 55.434048 19.714546 22.528716 20.23133 48.674921-4.666407 67.678249-44.781132 34.16915-40.943627 70.016569-20.343896 115.959187 16.363124 36.49212 34.706401 55.838265 77.456213 53.111078 49.258222-3.146755 64.173327 14.403438 64.377994 62.960676 0.07675 17.898126 0.342817 35.811602-0.2149 53.694379-0.956818 30.925179-13.037286 44.525299-43.619647 49.795473-5.843242 1.007985-12.060001 2.29227-17.754859 1.350802-44.530415-7.342427-68.880668 13.820137-80.219218 54.983781-2.686254 9.752381-7.531744 18.936811-11.619967 28.279858-11.128766 25.450337-8.821146 47.87672 13.825254 66.429781 6.559576 5.372508 12.280018 11.819517 18.097677 18.041393 23.239934 24.86192 24.125119 47.359936 1.545236 72.114406-14.915105 16.352891-30.715395 31.994564-47.068286 46.925019-25.363354 23.152951-52.01611 22.375216-77.113396-1.228002-8.068995-7.588028-15.64679-15.703073-23.766951-23.234817-14.244821-13.211253-30.444211-18.07721-49.212172-10.484065-7.101944 2.875571-13.994104 6.53911-21.346765 8.452746-51.581192 13.441503-81.549553 40.365442-73.265657 99.857013 3.724939 26.744856-19.049378 46.464518-51.729576 48.633988-26.806256 1.780603-54.108829-1.396852-81.007185-4.154739-23.869285-2.450887-39.214191-18.49166-36.036736-41.368311 8.688113-62.474592-25.736871-87.730495-78.162314-105.695138-32.547164-11.15435-55.347064-9.32258-79.4159 16.588258-38.226673 41.15341-60.479089 39.930525-100.511947 0.327467-11.512517-11.389717-23.393434-22.441733-34.332884-34.363584-21.213731-23.112017-24.314436-51.146275-0.04605-69.996103 47.293419-36.73772 41.864628-75.010443 18.987978-122.728546-16.24544-33.882616-34.762684-49.826173-73.470324-47.979054-52.266827 2.496937-67.478699-15.426773-67.494049-68.53785-0.005117-14.490421-0.112567-28.980842 0.0307-43.471264 0.332584-33.805866 14.562055-50.220157 47.56972-54.87633 5.045041-0.711218 10.356149-1.862469 15.247689-1.033568 44.822066 7.552211 68.993234-14.388088 80.326668-55.316364 1.130785-4.072873 2.660671-8.202029 4.840374-11.793934 22.267766-36.66097 15.697956-67.524749-18.036276-93.420237-4.66129-3.581672-9.726798-7.951312-11.962784-13.103803-4.59989-10.576165-10.212882-21.878899-10.422665-32.976965C129.497906 195.866287 198.378574 129.89189 231.621606 124.780333zM148.583101 806.014331c5.111557 8.161095 8.534613 15.87704 13.932704 21.797032 12.044651 13.216369 24.994953 25.603838 37.709889 38.201089 25.220087 24.98472 36.113486 26.703922 58.621736 0.240484 33.698416-39.618408 69.730035-41.16876 116.348054-23.255284 52.103093 20.026663 88.088662 43.824314 80.843452 107.864608-3.300255 29.185509 11.12365 38.405756 41.07666 38.86114 6.820527 0.102333 13.641053 0.025583 20.456463 0.025583 66.537231 0.005117 66.818648 0.005117 67.545216-66.07673 0.368401-33.319782 16.854325-53.970679 47.293419-65.114795 44.218298-16.194274 87.321161-50.404357 134.988098-8.217379 7.649428 6.76936 14.971389 13.988987 21.827732 21.556548 15.437006 17.023175 30.300944 15.917973 45.773767 0.010233 13.073102-13.441503 26.632289-26.407155 40.022625-39.536541 22.109149-21.674232 21.694698-32.777415-0.010233-55.341948-12.264668-12.750752-26.074572-25.440104-33.775166-40.86176-19.970379-39.991925 27.931924-142.427742 71.270154-153.382541 15.309089-3.868206 32.132714-2.957438 48.188837-2.343437 25.204737 0.961935 35.627402-12.285135 37.141938-35.279468 0.614001-9.343047 0.399101-18.742377 0.404217-28.121241 0.0307-61.036806-2.312737-63.917494-62.489942-63.56956-24.89262 0.143267-48.608405-6.221876-59.281787-27.911458-16.649658-33.836566-31.789897-69.627702-39.475141-106.288672-6.53911-31.191246 24.508869-47.86137 43.10798-68.1848 14.551821-15.90774 16.13799-30.838195-0.977285-46.290551-13.277769-11.983251-25.603838-25.01542-38.426223-37.510338-24.820986-24.191635-33.857033-25.414521-56.447149-0.0921-33.723999 37.791755-69.571419 41.787878-116.829021 23.889752-55.490331-21.014181-93.082536-47.339469-82.925938-114.101834 3.126288-20.548563-9.957048-33.319782-32.342497-33.227682-20.456463 0.081867-40.92316-0.347934-61.374507 0.0921-21.096048 0.455384-33.150932 9.731914-32.782531 32.889982 0.255834 16.025423-0.358167 32.506231-3.796572 48.071154-11.0776 50.15364-119.730175 96.930275-163.467506 69.985869-14.209004-8.749513-25.373587-22.513366-37.689422-34.235667-15.810523-15.048139-31.027512-15.523989-46.556618 0.542367-15.396073 15.928207-31.447079 31.221946-46.766402 47.226903-11.870684 12.397701-11.839984 25.864788-0.588418 38.666707 7.864328 8.943946 16.859441 16.890141 24.867036 25.721521 21.183031 23.357618 29.062709 49.114955 14.945805 79.49265-9.312347 20.042013-17.161325 40.759426-25.859671 61.087973-11.297617 26.402039-32.419247 38.38529-60.156738 39.823075-11.901384 0.619118-23.864168 0.0921-35.796252 0.189317-22.078449 0.179084-32.731365 11.834867-32.992315 33.437466-0.2149 17.898126-0.255834 35.806486-0.051167 53.704612 0.358167 30.684695 9.036047 39.321641 39.551891 39.751442 8.524379 0.117684 17.048758-0.081867 25.573137 0.056283 30.045111 0.480967 52.271943 13.267536 64.413811 41.485994 9.07698 21.096048 17.186909 42.637246 27.021156 63.370009 12.264668 25.854555 5.091091 48.168371-10.970149 68.788567-8.335062 10.698966-19.100545 19.468945-27.814241 29.912077C156.72373 789.958207 153.459291 797.684385 148.583101 806.014331z" p-id="7755" fill="#e6e6e6"></path><path d="M522.381732 323.071923c109.773127 0.573068 197.503623 87.551412 196.910088 195.221586-0.588418 107.823675-90.293949 191.327797-202.625413 192.514865-106.472873 1.130785-198.03064-95.144556-193.548434-200.829461C327.53878 405.844361 412.838855 322.498856 522.381732 323.071923zM345.72344 517.546475c0.0614 96.408375 78.694449 174.770239 175.29214 174.698606 95.666457-0.071633 176.371758-80.137351 176.540609-175.133523 0.163734-95.067806-80.265268-175.578674-175.716824-175.890791C423.768071 340.898416 345.66204 419.101664 345.72344 517.546475z" p-id="7756" fill="#e6e6e6"></path></svg>