<?xml version="1.0" standalone="no"?><!DOCTYPE svg PUBLIC "-//W3C//DTD SVG 1.1//EN" "http://www.w3.org/Graphics/SVG/1.1/DTD/svg11.dtd"><svg t="1557278333327" class="icon" style="" viewBox="0 0 1024 1024" version="1.1" xmlns="http://www.w3.org/2000/svg" p-id="3683" xmlns:xlink="http://www.w3.org/1999/xlink" width="200" height="200"><defs><style type="text/css"></style></defs><path d="M113.777778 341.191111c0-15.559111 12.743111-28.302222 28.216889-28.302222h740.010666a28.444444 28.444444 0 0 1 28.216889 28.302222v483.84a28.359111 28.359111 0 0 1-28.216889 28.302222H141.994667A28.444444 28.444444 0 0 1 113.777778 825.031111v-483.84z m-56.888889 0v483.84A85.333333 85.333333 0 0 0 141.994667 910.222222h740.010666A85.248 85.248 0 0 0 967.111111 825.031111v-483.84A85.333333 85.333333 0 0 0 882.005333 256H141.994667A85.248 85.248 0 0 0 56.888889 341.191111z" p-id="3684"></path><path d="M369.777778 313.031111v-114.062222c0-15.559111 12.743111-28.302222 28.16-28.302222h228.124444c15.530667 0 28.16 12.657778 28.16 28.302222v114.062222h56.888889v-114.062222A85.134222 85.134222 0 0 0 626.062222 113.777778h-228.124444A85.248 85.248 0 0 0 312.888889 198.968889v114.062222h56.888889zM910.222222 426.666667H85.333333v56.888889h853.333334v-56.888889h-28.444445z" p-id="3685"></path><path d="M227.555556 469.333333V512a28.444444 28.444444 0 0 0 56.888888 0v-42.666667a28.444444 28.444444 0 0 0-56.888888 0zM739.555556 469.333333V512a28.444444 28.444444 0 0 0 56.888888 0v-42.666667a28.444444 28.444444 0 0 0-56.888888 0z" p-id="3686"></path></svg>