<?xml version="1.0" standalone="no"?><!DOCTYPE svg PUBLIC "-//W3C//DTD SVG 1.1//EN" "http://www.w3.org/Graphics/SVG/1.1/DTD/svg11.dtd"><svg t="1557280090220" class="icon" style="" viewBox="0 0 1024 1024" version="1.1" xmlns="http://www.w3.org/2000/svg" p-id="42009" xmlns:xlink="http://www.w3.org/1999/xlink" width="200" height="200"><defs><style type="text/css"></style></defs><path d="M945.777778 202.695111h-168.903111a168.903111 168.903111 0 1 0-337.749334 0H270.222222c-37.319111 0-67.584 30.208-67.584 67.527111v168.903111a168.903111 168.903111 0 0 0 0 337.749334v168.903111c0 37.319111 30.264889 67.584 67.584 67.584h236.430222v-67.584a101.319111 101.319111 0 0 1 202.695112 0v67.584h236.430222c37.319111 0 67.584-30.264889 67.584-67.584v-236.430222h-67.584a101.319111 101.319111 0 0 1 0-202.695112h67.584V270.222222c0-37.319111-30.264889-67.584-67.584-67.584z m-168.903111 405.276445c0 93.297778 75.662222 168.96 168.903111 168.96v168.846222h-168.903111a168.903111 168.903111 0 0 0-337.749334 0H270.222222v-236.430222H202.638222a101.319111 101.319111 0 0 1 0-202.695112H270.222222V270.222222h236.430222V202.638222a101.319111 101.319111 0 0 1 202.695112 0V270.222222h236.430222v168.903111a168.903111 168.903111 0 0 0-168.903111 168.846223z" fill="#C1C5CF" p-id="42010"></path></svg>